<svg width="28" height="28" viewBox="0 0 28 28" fill="none" xmlns="http://www.w3.org/2000/svg">
<path d="M14 16.3333C13.6694 16.3333 13.3926 16.2213 13.1693 15.9973C12.9453 15.7741 12.8333 15.4972 12.8333 15.1666C12.8333 14.8361 12.9453 14.5588 13.1693 14.3348C13.3926 14.1116 13.6694 14 14 14C14.3306 14 14.6078 14.1116 14.8318 14.3348C15.0551 14.5588 15.1667 14.8361 15.1667 15.1666C15.1667 15.4972 15.0551 15.7741 14.8318 15.9973C14.6078 16.2213 14.3306 16.3333 14 16.3333ZM9.33333 16.3333C9.00278 16.3333 8.7255 16.2213 8.5015 15.9973C8.27828 15.7741 8.16667 15.4972 8.16667 15.1666C8.16667 14.8361 8.27828 14.5588 8.5015 14.3348C8.7255 14.1116 9.00278 14 9.33333 14C9.66389 14 9.94117 14.1116 10.1652 14.3348C10.3884 14.5588 10.5 14.8361 10.5 15.1666C10.5 15.4972 10.3884 15.7741 10.1652 15.9973C9.94117 16.2213 9.66389 16.3333 9.33333 16.3333ZM18.6667 16.3333C18.3361 16.3333 18.0592 16.2213 17.836 15.9973C17.612 15.7741 17.5 15.4972 17.5 15.1666C17.5 14.8361 17.612 14.5588 17.836 14.3348C18.0592 14.1116 18.3361 14 18.6667 14C18.9972 14 19.2741 14.1116 19.4973 14.3348C19.7213 14.5588 19.8333 14.8361 19.8333 15.1666C19.8333 15.4972 19.7213 15.7741 19.4973 15.9973C19.2741 16.2213 18.9972 16.3333 18.6667 16.3333ZM14 21C13.6694 21 13.3926 20.888 13.1693 20.664C12.9453 20.4408 12.8333 20.1639 12.8333 19.8333C12.8333 19.5028 12.9453 19.2259 13.1693 19.0026C13.3926 18.7786 13.6694 18.6666 14 18.6666C14.3306 18.6666 14.6078 18.7786 14.8318 19.0026C15.0551 19.2259 15.1667 19.5028 15.1667 19.8333C15.1667 20.1639 15.0551 20.4408 14.8318 20.664C14.6078 20.888 14.3306 21 14 21ZM9.33333 21C9.00278 21 8.7255 20.888 8.5015 20.664C8.27828 20.4408 8.16667 20.1639 8.16667 19.8333C8.16667 19.5028 8.27828 19.2259 8.5015 19.0026C8.7255 18.7786 9.00278 18.6666 9.33333 18.6666C9.66389 18.6666 9.94117 18.7786 10.1652 19.0026C10.3884 19.2259 10.5 19.5028 10.5 19.8333C10.5 20.1639 10.3884 20.4408 10.1652 20.664C9.94117 20.888 9.66389 21 9.33333 21ZM18.6667 21C18.3361 21 18.0592 20.888 17.836 20.664C17.612 20.4408 17.5 20.1639 17.5 19.8333C17.5 19.5028 17.612 19.2259 17.836 19.0026C18.0592 18.7786 18.3361 18.6666 18.6667 18.6666C18.9972 18.6666 19.2741 18.7786 19.4973 19.0026C19.7213 19.2259 19.8333 19.5028 19.8333 19.8333C19.8333 20.1639 19.7213 20.4408 19.4973 20.664C19.2741 20.888 18.9972 21 18.6667 21ZM5.83333 25.6666C5.19167 25.6666 4.64217 25.4384 4.18483 24.9818C3.72828 24.5245 3.5 23.975 3.5 23.3333V6.99998C3.5 6.35831 3.72828 5.8092 4.18483 5.35265C4.64217 4.89531 5.19167 4.66665 5.83333 4.66665H7V3.49998C7 3.16942 7.11161 2.89215 7.33483 2.66815C7.55883 2.44492 7.83611 2.33331 8.16667 2.33331C8.49722 2.33331 8.7745 2.44492 8.9985 2.66815C9.22172 2.89215 9.33333 3.16942 9.33333 3.49998V4.66665H18.6667V3.49998C18.6667 3.16942 18.7787 2.89215 19.0027 2.66815C19.2259 2.44492 19.5028 2.33331 19.8333 2.33331C20.1639 2.33331 20.4408 2.44492 20.664 2.66815C20.888 2.89215 21 3.16942 21 3.49998V4.66665H22.1667C22.8083 4.66665 23.3578 4.89531 23.8152 5.35265C24.2717 5.8092 24.5 6.35831 24.5 6.99998V23.3333C24.5 23.975 24.2717 24.5245 23.8152 24.9818C23.3578 25.4384 22.8083 25.6666 22.1667 25.6666H5.83333ZM5.83333 23.3333H22.1667V11.6666H5.83333V23.3333ZM5.83333 9.33331H22.1667V6.99998H5.83333V9.33331ZM5.83333 9.33331V6.99998V9.33331Z" fill="#1C9FE3"/>
</svg>
