<svg width="28" height="28" viewBox="0 0 28 28" fill="none" xmlns="http://www.w3.org/2000/svg">
<path d="M14 14C14.6416 14 15.1911 13.7713 15.6485 13.314C16.105 12.8574 16.3333 12.3083 16.3333 11.6666C16.3333 11.025 16.105 10.4755 15.6485 10.0181C15.1911 9.56159 14.6416 9.33331 14 9.33331C13.3583 9.33331 12.8092 9.56159 12.3526 10.0181C11.8953 10.4755 11.6666 11.025 11.6666 11.6666C11.6666 12.3083 11.8953 12.8574 12.3526 13.314C12.8092 13.7713 13.3583 14 14 14ZM14 25.6666C10.8694 23.0028 8.5314 20.5283 6.98596 18.2431C5.43974 15.9588 4.66663 13.8444 4.66663 11.9C4.66663 8.98331 5.60502 6.6597 7.48179 4.92915C9.35779 3.19859 11.5305 2.33331 14 2.33331C16.4694 2.33331 18.6421 3.19859 20.5181 4.92915C22.3949 6.6597 23.3333 8.98331 23.3333 11.9C23.3333 13.8444 22.5606 15.9588 21.0151 18.2431C19.4689 20.5283 17.1305 23.0028 14 25.6666Z" fill="#D01A2B"/>
</svg>
